<?xml version="1.0" encoding="UTF-8" standalone="no"?>
<svg
   version="1.1"
   id="Uploaded to svgrepo.com"
   x="0px"
   y="0px"
   width="96"
   height="32"
   viewBox="0 0 96 32"
   xml:space="preserve"
   sodipodi:docname="logo.svg"
   inkscape:version="1.2.1 (9c6d41e410, 2022-07-14)"
   xmlns:inkscape="http://www.inkscape.org/namespaces/inkscape"
   xmlns:sodipodi="http://sodipodi.sourceforge.net/DTD/sodipodi-0.dtd"
   xmlns="http://www.w3.org/2000/svg"
   xmlns:svg="http://www.w3.org/2000/svg"><defs
   id="defs38"><rect
     x="31.334469"
     y="3.27538"
     width="60.376172"
     height="26.093861"
     id="rect252" /></defs><sodipodi:namedview
   id="namedview36"
   pagecolor="#ffffff"
   bordercolor="#000000"
   borderopacity="0.25"
   inkscape:showpageshadow="2"
   inkscape:pageopacity="0.0"
   inkscape:pagecheckerboard="0"
   inkscape:deskcolor="#d1d1d1"
   showgrid="false"
   inkscape:zoom="9.1592425"
   inkscape:cx="14.357082"
   inkscape:cy="15.721824"
   inkscape:window-width="1920"
   inkscape:window-height="1009"
   inkscape:window-x="-8"
   inkscape:window-y="-8"
   inkscape:window-maximized="1"
   inkscape:current-layer="Uploaded to svgrepo.com" />
<style
   type="text/css"
   id="style21">
	.isometric_vijf{fill:#F29227;}
	.isometric_zeven{fill:#FF7344;}
	.isometric_tien{fill:#7BD6C4;}
	.isometric_twaalf{fill:#569080;}
	.isometric_dertien{fill:#225B49;}
	.st0{fill:#F28103;}
	.st1{fill:#72C0AB;}
	.st2{fill:#BE1E2D;}
	.st3{fill:#F05A28;}
	.st4{fill:#F8F7C5;}
	.st5{fill:#F29227;}
	.st6{fill:#F5DF89;}
	.st7{fill:#AD9A74;}
	.st8{fill:none;}
	.st9{fill:#F2D76C;}
	.st10{fill:#7BD6C4;}
	.st11{fill:#569080;}
</style>
<g
   id="g33">
	<path
   class="isometric_twaalf"
   d="m 19.671,4.987 h -0.01 C 19.606,4.492 19.258,4.007 18.602,3.627 17.167,2.799 14.849,2.795 13.423,3.618 12.714,4.027 12.373,4.564 12.375,5.102 h -0.006 v 1.61 c -0.008,2.731 7.196,2.817 7.295,0.076 0.009,-1.229 0.007,-0.792 0.007,-1.801 z"
   id="path23" />
	<path
   class="isometric_tien"
   d="M 7.535,27.843 C 3.871,25.727 3.059,22.599 5.082,20.043 L 13.454,9.671 v -1.43 c 0,0 10e-4,0 10e-4,0 1.358,0.723 3.673,0.751 5.061,0.058 0.014,-0.005 0.022,-0.008 0.022,-0.011 v 0 1.004 l 8.408,10.877 c 0.664,0.868 1.016,1.796 1.039,2.727 0.154,6.287 -12.966,9.268 -20.45,4.947 z M 18.61,6.606 C 17.189,7.427 14.877,7.422 13.446,6.597 12.016,5.771 12.008,4.436 13.43,3.616 c 1.422,-0.82 3.733,-0.817 5.164,0.009 1.43,0.826 1.437,2.161 0.016,2.981 z M 17.511,4.25 C 16.682,3.772 15.343,3.769 14.519,4.245 13.696,4.72 13.7,5.494 14.529,5.972 c 0.094,0.055 0.25,0.123 0.224,0.112 0.257,-0.705 0.833,-1.255 1.555,-1.474 0.879,0.064 1.557,0.447 1.557,0.915 0,0.092 -0.027,0.181 -0.076,0.264 0.541,-0.474 0.448,-1.12 -0.278,-1.539 z"
   id="path25" />
	<path
   class="isometric_zeven"
   d="m 25.49,22.294 c -0.018,-0.738 -0.297,-1.472 -0.823,-2.16 l -3.302,-4.282 c -0.351,-0.52 -0.937,-1 -1.764,-1.384 -2.309,-1.074 -5.47,-1.056 -7.695,0.229 -0.703,0.406 -1.186,0.908 -1.44,1.446 l -3.112,3.891 c -1.602,2.025 -0.959,4.502 1.943,6.178 5.937,3.429 16.315,1.057 16.193,-3.918 z"
   id="path27" />
	<path
   class="isometric_dertien"
   d="m 21.624,24.592 0.421,0.93 c -1.398,0.626 -3.044,1.018 -4.796,1.14 v -1.02 c 1.61,-0.12 3.103,-0.479 4.375,-1.05 z M 17.27,24.209 c 1.363,-0.129 2.656,-0.421 3.816,-0.856 l -0.443,-0.918 c -1.035,0.38 -2.182,0.633 -3.399,0.754 z m -0.03,-3.399 0.031,1.02 c 1.006,-0.101 1.973,-0.291 2.877,-0.56 l -0.447,-0.914 c -0.775,0.22 -1.603,0.364 -2.461,0.454 z"
   id="path29" />
	<path
   class="isometric_vijf"
   d="m 11.93,19.412 c 2.224,1.284 5.385,1.33 7.698,0.257 2.81,-1.303 2.888,-3.844 -0.028,-5.2 -2.309,-1.074 -5.47,-1.056 -7.695,0.229 -2.16,1.246 -2.249,3.401 0.025,4.714 2.262,1.305 -1.542,-0.891 0,0 z"
   id="path31" />
</g>
<text
   xml:space="preserve"
   id="text250"
   style="font-size:14.6667px;line-height:1.6;white-space:pre;shape-inside:url(#rect252);fill:#000000"
   transform="matrix(1.0353374,0,0,1.1004036,1.2899711,-6.4161765)"><tspan
     x="31.333984"
     y="19.18693"
     id="tspan352"><tspan
       style="font-size:11.2425px;font-family:'DejaVu Sans';-inkscape-font-specification:'DejaVu Sans'"
       id="tspan350">TH2816B
</tspan></tspan><tspan
     x="31.333984"
     y="45.28068"
     id="tspan356"><tspan
       dx="0 6.1299601 4.6111937 4.7575817 2.3824501 4.7575817 4.7502613"
       style="font-size:7.49502px"
       id="tspan354">web gui</tspan></tspan></text><text
   xml:space="preserve"
   style="font-style:normal;font-variant:normal;font-weight:normal;font-stretch:normal;font-size:8px;font-family:'DejaVu Sans';-inkscape-font-specification:'DejaVu Sans';fill:#000000"
   x="46.182858"
   y="25.438786"
   id="text280"><tspan
     sodipodi:role="line"
     id="tspan278"
     x="46.182858"
     y="25.438786"
     style="fill:#000080">webGUI</tspan></text></svg>
